<svg width="235" height="77" viewBox="0 0 235 77" fill="none" xmlns="http://www.w3.org/2000/svg">
<g filter="url(#filter0_d_88_440)">
<path d="M166.111 45.2632H162.607V27.7583H174.863V31.2617H166.111V34.7651H171.36V38.2686H166.111V45.2632ZM188.926 45.2632H176.67V27.7583H180.173V41.7598H188.926V45.2632ZM196.384 45.2632H192.893V39.7822C192.12 39.5869 191.408 39.2736 190.757 38.8423C190.114 38.411 189.561 37.8983 189.097 37.3042C188.633 36.702 188.271 36.0387 188.01 35.3145C187.758 34.582 187.632 33.813 187.632 33.0073V27.7583H191.135V33.0073C191.135 33.4875 191.225 33.9432 191.404 34.3745C191.591 34.7977 191.843 35.168 192.161 35.4854C192.478 35.8027 192.848 36.055 193.271 36.2422C193.703 36.4212 194.159 36.5107 194.639 36.5107C195.119 36.5107 195.57 36.4212 195.994 36.2422C196.425 36.055 196.799 35.8027 197.117 35.4854C197.434 35.168 197.682 34.7977 197.861 34.3745C198.049 33.9432 198.142 33.4875 198.142 33.0073V27.7583H201.633V33.0073C201.633 33.813 201.503 34.582 201.243 35.3145C200.99 36.0387 200.632 36.702 200.168 37.3042C199.705 37.8983 199.151 38.411 198.508 38.8423C197.865 39.2736 197.157 39.5869 196.384 39.7822V45.2632Z" fill="url(#paint0_linear_88_440)"/>
</g>
<g filter="url(#filter1_dn_88_440)">
<path d="M166.111 45.2837H162.607V27.7788H174.863V31.2822H166.111V34.7856H171.36V38.2891H166.111V45.2837ZM188.926 45.2837H176.67V27.7788H180.173V41.7803H188.926V45.2837ZM196.384 45.2837H192.893V39.8027C192.12 39.6074 191.408 39.2941 190.757 38.8628C190.114 38.4315 189.561 37.9188 189.097 37.3247C188.633 36.7225 188.271 36.0592 188.01 35.335C187.758 34.6025 187.632 33.8335 187.632 33.0278V27.7788H191.135V33.0278C191.135 33.508 191.225 33.9637 191.404 34.395C191.591 34.8182 191.843 35.1885 192.161 35.5059C192.478 35.8232 192.848 36.0755 193.271 36.2627C193.703 36.4417 194.159 36.5312 194.639 36.5312C195.119 36.5312 195.57 36.4417 195.994 36.2627C196.425 36.0755 196.799 35.8232 197.117 35.5059C197.434 35.1885 197.682 34.8182 197.861 34.395C198.049 33.9637 198.142 33.508 198.142 33.0278V27.7788H201.633V33.0278C201.633 33.8335 201.503 34.6025 201.243 35.335C200.99 36.0592 200.632 36.7225 200.168 37.3247C199.705 37.9188 199.151 38.4315 198.508 38.8628C197.865 39.2941 197.157 39.6074 196.384 39.8027V45.2837Z" fill="url(#paint1_linear_88_440)" shape-rendering="crispEdges"/>
</g>
<path d="M25.8841 18.6533C24.0395 19.5489 22.8331 21.9123 22.4604 22.982C26.6527 18.6533 31.2898 19.3166 32.2423 19.6981C35.0372 20.8176 34.4083 23.2059 34.4083 24.9225C36.9935 22.0118 36.5843 21.3354 37.7621 18.2801C38.7403 15.7425 36.6442 9.99562 35.107 8.57769C33.7562 8.35379 31.2247 8.87611 31.1943 9.62261C31.1244 11.3392 28.1898 17.5338 25.8841 18.6533Z" fill="white"/>
<path d="M34.4077 7.38292C33.4574 7.08438 32.0088 8.00487 31.4032 8.50243C31.0539 7.38292 26.0232 2.97957 19.1758 9.17417C13.2509 14.5343 18.3374 23.5785 21.2021 25.8175C18.7985 32.6838 23.927 40.6696 26.8616 43.1325C18.1418 42.4757 13.1903 33.455 11.9093 29.3253C12.4217 32.5594 13.4465 39.6247 21.2021 43.1325C27.4066 45.9387 30.5881 43.8042 31.4032 42.3862V31.415C31.4032 29.6835 29.2139 29.6984 28.1193 29.9223V28.5043H39.9973V29.9223C37.6496 29.8029 37.3888 30.8677 37.5518 31.415V44.4759C29.7962 49.1032 20.8539 48.2822 13.4465 46.1925C7.08941 44.3991 -0.998633 34.8133 0.101221 22.6082C1.20108 10.4032 6.60032 2.54492 17.8495 0.442115C31.8935 -2.18313 35.5955 7.75609 34.4077 7.38292Z" fill="white"/>
<ellipse cx="26.6525" cy="9.77153" rx="1.6769" ry="1.94048" fill="white"/>
<path d="M49.1934 45.5382C47.9267 45.5382 46.8267 45.2715 45.8934 44.7382C44.9767 44.2049 44.26 43.4549 43.7434 42.4882C43.2267 41.5049 42.9684 40.3549 42.9684 39.0382V27.7632H45.9684V39.0382C45.9684 40.1882 46.26 41.1132 46.8434 41.8132C47.4267 42.4965 48.21 42.8382 49.1934 42.8382C50.1767 42.8382 50.96 42.4965 51.5434 41.8132C52.1267 41.1132 52.4184 40.1882 52.4184 39.0382V27.7632H55.4184V39.0382C55.4184 40.3549 55.16 41.5049 54.6434 42.4882C54.1267 43.4549 53.4017 44.2049 52.4684 44.7382C51.5517 45.2715 50.46 45.5382 49.1934 45.5382ZM56.9086 45.2632L62.4086 27.7632H65.9586L71.4586 45.2632H68.4086L67.1336 41.0382H61.1086L59.8586 45.2632H56.9086ZM61.7836 38.7132H66.4836L64.1336 30.9382L61.7836 38.7132ZM79.3738 45.5382C78.1405 45.5382 77.0072 45.1882 75.9738 44.4882C74.9405 43.7882 74.1155 42.7715 73.4988 41.4382C72.8822 40.0882 72.5738 38.4465 72.5738 36.5132C72.5738 34.5798 72.8822 32.9465 73.4988 31.6132C74.1155 30.2632 74.9405 29.2382 75.9738 28.5382C77.0072 27.8382 78.1405 27.4882 79.3738 27.4882C80.4072 27.4882 81.3488 27.7132 82.1988 28.1632C83.0655 28.5965 83.8072 29.2382 84.4238 30.0882C85.0572 30.9215 85.5155 31.9382 85.7988 33.1382L83.0988 33.9132C82.8488 32.6965 82.3822 31.7715 81.6988 31.1382C81.0322 30.5048 80.2738 30.1882 79.4238 30.1882C78.7072 30.1882 78.0572 30.4215 77.4738 30.8882C76.9072 31.3548 76.4488 32.0632 76.0988 33.0132C75.7655 33.9465 75.5988 35.1132 75.5988 36.5132C75.5988 37.9132 75.7655 39.0882 76.0988 40.0382C76.4488 40.9715 76.9072 41.6715 77.4738 42.1382C78.0572 42.6049 78.7072 42.8382 79.4238 42.8382C80.2738 42.8382 81.0322 42.5215 81.6988 41.8882C82.3822 41.2549 82.8488 40.3299 83.0988 39.1132L85.7988 39.8882C85.5155 41.0715 85.0572 42.0882 84.4238 42.9382C83.8072 43.7882 83.0655 44.4382 82.1988 44.8882C81.3488 45.3215 80.4072 45.5382 79.3738 45.5382ZM86.8891 45.2632L92.3891 27.7632H95.9391L101.439 45.2632H98.3891L97.1141 41.0382H91.0891L89.8391 45.2632H86.8891ZM91.7641 38.7132H96.4641L94.1141 30.9382L91.7641 38.7132ZM102.904 45.2632V27.7632H106.254L109.154 34.7882L112.054 27.7632H115.404V45.2632H112.779V31.8132L109.129 40.4882L105.479 31.8132V45.2632H102.904ZM116.87 45.2632L122.37 27.7632H125.92L131.42 45.2632H128.37L127.095 41.0382H121.07L119.82 45.2632H116.87ZM121.745 38.7132H126.445L124.095 30.9382L121.745 38.7132ZM137.635 45.2632V38.0882L131.885 27.7632H135.11L139.21 35.3382L143.335 27.7632H146.385L140.635 38.1132V45.2632H137.635ZM146.85 45.2632L152.35 27.7632H155.9L161.4 45.2632H158.35L157.075 41.0382H151.05L149.8 45.2632H146.85ZM151.725 38.7132H156.425L154.075 30.9382L151.725 38.7132Z" fill="white"/>
<defs>
<filter id="filter0_d_88_440" x="162.607" y="27.7583" width="39.0259" height="17.5049" filterUnits="userSpaceOnUse" color-interpolation-filters="sRGB">
<feFlood flood-opacity="0" result="BackgroundImageFix"/>
<feColorMatrix in="SourceAlpha" type="matrix" values="0 0 0 0 0 0 0 0 0 0 0 0 0 0 0 0 0 0 127 0" result="hardAlpha"/>
<feOffset/>
<feComposite in2="hardAlpha" operator="out"/>
<feColorMatrix type="matrix" values="0 0 0 0 0.647059 0 0 0 0 0.513726 0 0 0 0 0.247059 0 0 0 1 0"/>
<feBlend mode="normal" in2="BackgroundImageFix" result="effect1_dropShadow_88_440"/>
<feBlend mode="normal" in="SourceGraphic" in2="effect1_dropShadow_88_440" result="shape"/>
</filter>
<filter id="filter1_dn_88_440" x="162.607" y="27.7788" width="40.0259" height="17.5049" filterUnits="userSpaceOnUse" color-interpolation-filters="sRGB">
<feFlood flood-opacity="0" result="BackgroundImageFix"/>
<feColorMatrix in="SourceAlpha" type="matrix" values="0 0 0 0 0 0 0 0 0 0 0 0 0 0 0 0 0 0 127 0" result="hardAlpha"/>
<feOffset dx="1"/>
<feComposite in2="hardAlpha" operator="out"/>
<feColorMatrix type="matrix" values="0 0 0 0 0.701961 0 0 0 0 0.427451 0 0 0 0 0 0 0 0 1 0"/>
<feBlend mode="normal" in2="BackgroundImageFix" result="effect1_dropShadow_88_440"/>
<feBlend mode="normal" in="SourceGraphic" in2="BackgroundImageFix" result="shape"/>
<feTurbulence type="fractalNoise" baseFrequency="8.3333339691162109 8.3333339691162109" stitchTiles="stitch" numOctaves="3" result="noise" seed="9481" />
<feColorMatrix in="noise" type="luminanceToAlpha" result="alphaNoise" />
<feComponentTransfer in="alphaNoise" result="coloredNoise1">
<feFuncA type="discrete" tableValues="1 1 1 1 1 1 1 1 1 1 1 1 1 1 1 1 1 1 1 1 1 1 1 1 1 1 1 1 1 1 1 1 1 1 1 1 1 1 1 1 1 1 1 1 1 1 1 1 1 1 1 0 0 0 0 0 0 0 0 0 0 0 0 0 0 0 0 0 0 0 0 0 0 0 0 0 0 0 0 0 0 0 0 0 0 0 0 0 0 0 0 0 0 0 0 0 0 0 0 0 "/>
</feComponentTransfer>
<feComposite operator="in" in2="shape" in="coloredNoise1" result="noise1Clipped" />
<feFlood flood-color="rgba(0, 0, 0, 0.25)" result="color1Flood" />
<feComposite operator="in" in2="noise1Clipped" in="color1Flood" result="color1" />
<feMerge result="effect2_noise_88_440">
<feMergeNode in="shape" />
<feMergeNode in="color1" />
</feMerge>
<feBlend mode="normal" in="effect2_noise_88_440" in2="effect1_dropShadow_88_440" result="effect2_noise_88_440"/>
</filter>
<linearGradient id="paint0_linear_88_440" x1="142.462" y1="52.6638" x2="201.368" y2="65.2056" gradientUnits="userSpaceOnUse">
<stop offset="0.192308" stop-color="#CC9900"/>
<stop offset="0.206731" stop-color="#CC9900"/>
<stop offset="0.413462" stop-color="#FFFACD"/>
<stop offset="0.625" stop-color="#DAA520"/>
<stop offset="0.730769" stop-color="#FFFACD"/>
<stop offset="0.942146" stop-color="#DAA520"/>
</linearGradient>
<linearGradient id="paint1_linear_88_440" x1="142.462" y1="52.6844" x2="201.368" y2="65.2261" gradientUnits="userSpaceOnUse">
<stop offset="0.152243" stop-color="#CC9900" stop-opacity="0.5"/>
<stop offset="0.219551" stop-color="#CC9900" stop-opacity="0.5"/>
<stop offset="0.332997" stop-color="#FFFACD" stop-opacity="0.5"/>
<stop offset="0.435897" stop-color="#FFFACD" stop-opacity="0.5"/>
<stop offset="0.541254" stop-color="#FFFACD" stop-opacity="0.5"/>
<stop offset="0.607759" stop-color="#DAA520" stop-opacity="0.5"/>
<stop offset="0.849" stop-color="#FFFACD" stop-opacity="0.5"/>
<stop offset="0.942146" stop-color="#DAA520" stop-opacity="0.5"/>
</linearGradient>
</defs>
</svg>
