<svg width="39" height="42" viewBox="0 0 39 42" fill="none" xmlns="http://www.w3.org/2000/svg">
<path d="M25.2392 16.3675C23.4406 17.1533 22.2642 19.2272 21.9009 20.1659C25.9886 16.3675 30.5101 16.9495 31.4389 17.2843C34.164 18.2666 33.5509 20.3623 33.5509 21.8686C36.0716 19.3145 35.6726 18.721 36.821 16.04C37.7748 13.8134 35.731 8.77056 34.2321 7.52636C32.915 7.3299 30.4466 7.78822 30.4169 8.44325C30.3488 9.94951 27.4874 15.3851 25.2392 16.3675Z" fill="#05254B"/>
<path d="M33.5498 6.47835C32.6232 6.21639 31.2107 7.0241 30.6202 7.46069C30.2796 6.47835 25.3743 2.61451 18.6977 8.05013C12.9205 12.7536 17.8802 20.6896 20.6734 22.6543C18.3298 28.6793 23.3305 35.6867 26.1918 37.8478C17.6894 37.2715 12.8614 29.356 11.6124 25.7323C12.112 28.5702 13.1112 34.7698 20.6734 37.8478C26.7232 40.3102 29.8254 38.4372 30.6202 37.1929V27.566C30.6202 26.0466 28.4855 26.0597 27.4182 26.2562V25.0119H39V26.2562C36.7109 26.1514 36.4565 27.0857 36.6155 27.566V39.0266C29.0532 43.087 20.3339 42.3666 13.1112 40.5329C6.91265 38.9592 -0.973733 30.5479 0.098697 19.8382C1.17113 9.12861 6.43575 2.23311 17.4044 0.387946C31.0983 -1.91564 34.708 6.8058 33.5498 6.47835Z" fill="#05254B"/>
<ellipse cx="25.9886" cy="8.57431" rx="1.63508" ry="1.70273" fill="#05254B"/>
</svg>
