<svg width="70" height="68" viewBox="0 0 70 68" fill="none" xmlns="http://www.w3.org/2000/svg">
<g clip-path="url(#clip0_141_907)">
<path d="M70 0H0V68H70V0Z" fill="white"/>
<path d="M6.48707 4.25H4.375V6.30172H6.48707V4.25Z" fill="black"/>
<path d="M8.59914 4.25H6.48707V6.30172H8.59914V4.25Z" fill="black"/>
<path d="M10.7112 4.25H8.59914V6.30172H10.7112V4.25Z" fill="black"/>
<path d="M12.8233 4.25H10.7112V6.30172H12.8233V4.25Z" fill="black"/>
<path d="M14.9353 4.25H12.8233V6.30172H14.9353V4.25Z" fill="black"/>
<path d="M17.0474 4.25H14.9353V6.30172H17.0474V4.25Z" fill="black"/>
<path d="M19.1595 4.25H17.0474V6.30172H19.1595V4.25Z" fill="black"/>
<path d="M23.3836 4.25H21.2716V6.30172H23.3836V4.25Z" fill="black"/>
<path d="M27.6078 4.25H25.4957V6.30172H27.6078V4.25Z" fill="black"/>
<path d="M29.7198 4.25H27.6078V6.30172H29.7198V4.25Z" fill="black"/>
<path d="M31.8319 4.25H29.7198V6.30172H31.8319V4.25Z" fill="black"/>
<path d="M40.2802 4.25H38.1681V6.30172H40.2802V4.25Z" fill="black"/>
<path d="M44.5043 4.25H42.3922V6.30172H44.5043V4.25Z" fill="black"/>
<path d="M48.7284 4.25H46.6164V6.30172H48.7284V4.25Z" fill="black"/>
<path d="M52.9526 4.25H50.8405V6.30172H52.9526V4.25Z" fill="black"/>
<path d="M55.0647 4.25H52.9526V6.30172H55.0647V4.25Z" fill="black"/>
<path d="M57.1767 4.25H55.0647V6.30172H57.1767V4.25Z" fill="black"/>
<path d="M59.2888 4.25H57.1767V6.30172H59.2888V4.25Z" fill="black"/>
<path d="M61.4009 4.25H59.2888V6.30172H61.4009V4.25Z" fill="black"/>
<path d="M63.5129 4.25H61.4009V6.30172H63.5129V4.25Z" fill="black"/>
<path d="M65.625 4.25H63.5129V6.30172H65.625V4.25Z" fill="black"/>
<path d="M6.48707 6.30172H4.375V8.35345H6.48707V6.30172Z" fill="black"/>
<path d="M19.1595 6.30172H17.0474V8.35345H19.1595V6.30172Z" fill="black"/>
<path d="M29.7198 6.30172H27.6078V8.35345H29.7198V6.30172Z" fill="black"/>
<path d="M31.8319 6.30172H29.7198V8.35345H31.8319V6.30172Z" fill="black"/>
<path d="M33.944 6.30172H31.8319V8.35345H33.944V6.30172Z" fill="black"/>
<path d="M36.056 6.30172H33.944V8.35345H36.056V6.30172Z" fill="black"/>
<path d="M38.1681 6.30172H36.056V8.35345H38.1681V6.30172Z" fill="black"/>
<path d="M40.2802 6.30172H38.1681V8.35345H40.2802V6.30172Z" fill="black"/>
<path d="M52.9526 6.30172H50.8405V8.35345H52.9526V6.30172Z" fill="black"/>
<path d="M65.625 6.30172H63.5129V8.35345H65.625V6.30172Z" fill="black"/>
<path d="M6.48707 8.35345H4.375V10.4052H6.48707V8.35345Z" fill="black"/>
<path d="M10.7112 8.35345H8.59914V10.4052H10.7112V8.35345Z" fill="black"/>
<path d="M12.8233 8.35345H10.7112V10.4052H12.8233V8.35345Z" fill="black"/>
<path d="M14.9353 8.35345H12.8233V10.4052H14.9353V8.35345Z" fill="black"/>
<path d="M19.1595 8.35345H17.0474V10.4052H19.1595V8.35345Z" fill="black"/>
<path d="M27.6078 8.35345H25.4957V10.4052H27.6078V8.35345Z" fill="black"/>
<path d="M29.7198 8.35345H27.6078V10.4052H29.7198V8.35345Z" fill="black"/>
<path d="M36.056 8.35345H33.944V10.4052H36.056V8.35345Z" fill="black"/>
<path d="M40.2802 8.35345H38.1681V10.4052H40.2802V8.35345Z" fill="black"/>
<path d="M42.3922 8.35345H40.2802V10.4052H42.3922V8.35345Z" fill="black"/>
<path d="M44.5043 8.35345H42.3922V10.4052H44.5043V8.35345Z" fill="black"/>
<path d="M48.7284 8.35345H46.6164V10.4052H48.7284V8.35345Z" fill="black"/>
<path d="M52.9526 8.35345H50.8405V10.4052H52.9526V8.35345Z" fill="black"/>
<path d="M57.1767 8.35345H55.0647V10.4052H57.1767V8.35345Z" fill="black"/>
<path d="M59.2888 8.35345H57.1767V10.4052H59.2888V8.35345Z" fill="black"/>
<path d="M61.4009 8.35345H59.2888V10.4052H61.4009V8.35345Z" fill="black"/>
<path d="M65.625 8.35345H63.5129V10.4052H65.625V8.35345Z" fill="black"/>
<path d="M6.48707 10.4052H4.375V12.4569H6.48707V10.4052Z" fill="black"/>
<path d="M10.7112 10.4052H8.59914V12.4569H10.7112V10.4052Z" fill="black"/>
<path d="M12.8233 10.4052H10.7112V12.4569H12.8233V10.4052Z" fill="black"/>
<path d="M14.9353 10.4052H12.8233V12.4569H14.9353V10.4052Z" fill="black"/>
<path d="M19.1595 10.4052H17.0474V12.4569H19.1595V10.4052Z" fill="black"/>
<path d="M23.3836 10.4052H21.2716V12.4569H23.3836V10.4052Z" fill="black"/>
<path d="M31.8319 10.4052H29.7198V12.4569H31.8319V10.4052Z" fill="black"/>
<path d="M38.1681 10.4052H36.056V12.4569H38.1681V10.4052Z" fill="black"/>
<path d="M46.6164 10.4052H44.5043V12.4569H46.6164V10.4052Z" fill="black"/>
<path d="M52.9526 10.4052H50.8405V12.4569H52.9526V10.4052Z" fill="black"/>
<path d="M57.1767 10.4052H55.0647V12.4569H57.1767V10.4052Z" fill="black"/>
<path d="M59.2888 10.4052H57.1767V12.4569H59.2888V10.4052Z" fill="black"/>
<path d="M61.4009 10.4052H59.2888V12.4569H61.4009V10.4052Z" fill="black"/>
<path d="M65.625 10.4052H63.5129V12.4569H65.625V10.4052Z" fill="black"/>
<path d="M6.48707 12.4569H4.375V14.5086H6.48707V12.4569Z" fill="black"/>
<path d="M10.7112 12.4569H8.59914V14.5086H10.7112V12.4569Z" fill="black"/>
<path d="M12.8233 12.4569H10.7112V14.5086H12.8233V12.4569Z" fill="black"/>
<path d="M14.9353 12.4569H12.8233V14.5086H14.9353V12.4569Z" fill="black"/>
<path d="M19.1595 12.4569H17.0474V14.5086H19.1595V12.4569Z" fill="black"/>
<path d="M27.6078 12.4569H25.4957V14.5086H27.6078V12.4569Z" fill="black"/>
<path d="M31.8319 12.4569H29.7198V14.5086H31.8319V12.4569Z" fill="black"/>
<path d="M36.056 12.4569H33.944V14.5086H36.056V12.4569Z" fill="black"/>
<path d="M38.1681 12.4569H36.056V14.5086H38.1681V12.4569Z" fill="black"/>
<path d="M40.2802 12.4569H38.1681V14.5086H40.2802V12.4569Z" fill="black"/>
<path d="M42.3922 12.4569H40.2802V14.5086H42.3922V12.4569Z" fill="black"/>
<path d="M46.6164 12.4569H44.5043V14.5086H46.6164V12.4569Z" fill="black"/>
<path d="M48.7284 12.4569H46.6164V14.5086H48.7284V12.4569Z" fill="black"/>
<path d="M52.9526 12.4569H50.8405V14.5086H52.9526V12.4569Z" fill="black"/>
<path d="M57.1767 12.4569H55.0647V14.5086H57.1767V12.4569Z" fill="black"/>
<path d="M59.2888 12.4569H57.1767V14.5086H59.2888V12.4569Z" fill="black"/>
<path d="M61.4009 12.4569H59.2888V14.5086H61.4009V12.4569Z" fill="black"/>
<path d="M65.625 12.4569H63.5129V14.5086H65.625V12.4569Z" fill="black"/>
<path d="M6.48707 14.5086H4.375V16.5603H6.48707V14.5086Z" fill="black"/>
<path d="M19.1595 14.5086H17.0474V16.5603H19.1595V14.5086Z" fill="black"/>
<path d="M23.3836 14.5086H21.2716V16.5603H23.3836V14.5086Z" fill="black"/>
<path d="M29.7198 14.5086H27.6078V16.5603H29.7198V14.5086Z" fill="black"/>
<path d="M33.944 14.5086H31.8319V16.5603H33.944V14.5086Z" fill="black"/>
<path d="M36.056 14.5086H33.944V16.5603H36.056V14.5086Z" fill="black"/>
<path d="M38.1681 14.5086H36.056V16.5603H38.1681V14.5086Z" fill="black"/>
<path d="M40.2802 14.5086H38.1681V16.5603H40.2802V14.5086Z" fill="black"/>
<path d="M44.5043 14.5086H42.3922V16.5603H44.5043V14.5086Z" fill="black"/>
<path d="M46.6164 14.5086H44.5043V16.5603H46.6164V14.5086Z" fill="black"/>
<path d="M48.7284 14.5086H46.6164V16.5603H48.7284V14.5086Z" fill="black"/>
<path d="M52.9526 14.5086H50.8405V16.5603H52.9526V14.5086Z" fill="black"/>
<path d="M65.625 14.5086H63.5129V16.5603H65.625V14.5086Z" fill="black"/>
<path d="M6.48707 16.5603H4.375V18.6121H6.48707V16.5603Z" fill="black"/>
<path d="M8.59914 16.5603H6.48707V18.6121H8.59914V16.5603Z" fill="black"/>
<path d="M10.7112 16.5603H8.59914V18.6121H10.7112V16.5603Z" fill="black"/>
<path d="M12.8233 16.5603H10.7112V18.6121H12.8233V16.5603Z" fill="black"/>
<path d="M14.9353 16.5603H12.8233V18.6121H14.9353V16.5603Z" fill="black"/>
<path d="M17.0474 16.5603H14.9353V18.6121H17.0474V16.5603Z" fill="black"/>
<path d="M19.1595 16.5603H17.0474V18.6121H19.1595V16.5603Z" fill="black"/>
<path d="M23.3836 16.5603H21.2716V18.6121H23.3836V16.5603Z" fill="black"/>
<path d="M27.6078 16.5603H25.4957V18.6121H27.6078V16.5603Z" fill="black"/>
<path d="M31.8319 16.5603H29.7198V18.6121H31.8319V16.5603Z" fill="black"/>
<path d="M36.056 16.5603H33.944V18.6121H36.056V16.5603Z" fill="black"/>
<path d="M40.2802 16.5603H38.1681V18.6121H40.2802V16.5603Z" fill="black"/>
<path d="M44.5043 16.5603H42.3922V18.6121H44.5043V16.5603Z" fill="black"/>
<path d="M48.7284 16.5603H46.6164V18.6121H48.7284V16.5603Z" fill="black"/>
<path d="M52.9526 16.5603H50.8405V18.6121H52.9526V16.5603Z" fill="black"/>
<path d="M55.0647 16.5603H52.9526V18.6121H55.0647V16.5603Z" fill="black"/>
<path d="M57.1767 16.5603H55.0647V18.6121H57.1767V16.5603Z" fill="black"/>
<path d="M59.2888 16.5603H57.1767V18.6121H59.2888V16.5603Z" fill="black"/>
<path d="M61.4009 16.5603H59.2888V18.6121H61.4009V16.5603Z" fill="black"/>
<path d="M63.5129 16.5603H61.4009V18.6121H63.5129V16.5603Z" fill="black"/>
<path d="M65.625 16.5603H63.5129V18.6121H65.625V16.5603Z" fill="black"/>
<path d="M25.4957 18.6121H23.3836V20.6638H25.4957V18.6121Z" fill="black"/>
<path d="M27.6078 18.6121H25.4957V20.6638H27.6078V18.6121Z" fill="black"/>
<path d="M29.7198 18.6121H27.6078V20.6638H29.7198V18.6121Z" fill="black"/>
<path d="M31.8319 18.6121H29.7198V20.6638H31.8319V18.6121Z" fill="black"/>
<path d="M36.056 18.6121H33.944V20.6638H36.056V18.6121Z" fill="black"/>
<path d="M40.2802 18.6121H38.1681V20.6638H40.2802V18.6121Z" fill="black"/>
<path d="M42.3922 18.6121H40.2802V20.6638H42.3922V18.6121Z" fill="black"/>
<path d="M44.5043 18.6121H42.3922V20.6638H44.5043V18.6121Z" fill="black"/>
<path d="M46.6164 18.6121H44.5043V20.6638H46.6164V18.6121Z" fill="black"/>
<path d="M48.7284 18.6121H46.6164V20.6638H48.7284V18.6121Z" fill="black"/>
<path d="M17.0474 20.6638H14.9353V22.7155H17.0474V20.6638Z" fill="black"/>
<path d="M19.1595 20.6638H17.0474V22.7155H19.1595V20.6638Z" fill="black"/>
<path d="M23.3836 20.6638H21.2716V22.7155H23.3836V20.6638Z" fill="black"/>
<path d="M27.6078 20.6638H25.4957V22.7155H27.6078V20.6638Z" fill="black"/>
<path d="M29.7198 20.6638H27.6078V22.7155H29.7198V20.6638Z" fill="black"/>
<path d="M38.1681 20.6638H36.056V22.7155H38.1681V20.6638Z" fill="black"/>
<path d="M44.5043 20.6638H42.3922V22.7155H44.5043V20.6638Z" fill="black"/>
<path d="M46.6164 20.6638H44.5043V22.7155H46.6164V20.6638Z" fill="black"/>
<path d="M50.8405 20.6638H48.7284V22.7155H50.8405V20.6638Z" fill="black"/>
<path d="M55.0647 20.6638H52.9526V22.7155H55.0647V20.6638Z" fill="black"/>
<path d="M59.2888 20.6638H57.1767V22.7155H59.2888V20.6638Z" fill="black"/>
<path d="M65.625 20.6638H63.5129V22.7155H65.625V20.6638Z" fill="black"/>
<path d="M10.7112 22.7155H8.59914V24.7672H10.7112V22.7155Z" fill="black"/>
<path d="M12.8233 22.7155H10.7112V24.7672H12.8233V22.7155Z" fill="black"/>
<path d="M14.9353 22.7155H12.8233V24.7672H14.9353V22.7155Z" fill="black"/>
<path d="M25.4957 22.7155H23.3836V24.7672H25.4957V22.7155Z" fill="black"/>
<path d="M27.6078 22.7155H25.4957V24.7672H27.6078V22.7155Z" fill="black"/>
<path d="M36.056 22.7155H33.944V24.7672H36.056V22.7155Z" fill="black"/>
<path d="M42.3922 22.7155H40.2802V24.7672H42.3922V22.7155Z" fill="black"/>
<path d="M50.8405 22.7155H48.7284V24.7672H50.8405V22.7155Z" fill="black"/>
<path d="M61.4009 22.7155H59.2888V24.7672H61.4009V22.7155Z" fill="black"/>
<path d="M8.59914 24.7672H6.48707V26.819H8.59914V24.7672Z" fill="black"/>
<path d="M10.7112 24.7672H8.59914V26.819H10.7112V24.7672Z" fill="black"/>
<path d="M14.9353 24.7672H12.8233V26.819H14.9353V24.7672Z" fill="black"/>
<path d="M19.1595 24.7672H17.0474V26.819H19.1595V24.7672Z" fill="black"/>
<path d="M21.2716 24.7672H19.1595V26.819H21.2716V24.7672Z" fill="black"/>
<path d="M25.4957 24.7672H23.3836V26.819H25.4957V24.7672Z" fill="black"/>
<path d="M27.6078 24.7672H25.4957V26.819H27.6078V24.7672Z" fill="black"/>
<path d="M33.944 24.7672H31.8319V26.819H33.944V24.7672Z" fill="black"/>
<path d="M36.056 24.7672H33.944V26.819H36.056V24.7672Z" fill="black"/>
<path d="M40.2802 24.7672H38.1681V26.819H40.2802V24.7672Z" fill="black"/>
<path d="M44.5043 24.7672H42.3922V26.819H44.5043V24.7672Z" fill="black"/>
<path d="M48.7284 24.7672H46.6164V26.819H48.7284V24.7672Z" fill="black"/>
<path d="M55.0647 24.7672H52.9526V26.819H55.0647V24.7672Z" fill="black"/>
<path d="M59.2888 24.7672H57.1767V26.819H59.2888V24.7672Z" fill="black"/>
<path d="M63.5129 24.7672H61.4009V26.819H63.5129V24.7672Z" fill="black"/>
<path d="M65.625 24.7672H63.5129V26.819H65.625V24.7672Z" fill="black"/>
<path d="M6.48707 26.819H4.375V28.8707H6.48707V26.819Z" fill="black"/>
<path d="M12.8233 26.819H10.7112V28.8707H12.8233V26.819Z" fill="black"/>
<path d="M17.0474 26.819H14.9353V28.8707H17.0474V26.819Z" fill="black"/>
<path d="M25.4957 26.819H23.3836V28.8707H25.4957V26.819Z" fill="black"/>
<path d="M33.944 26.819H31.8319V28.8707H33.944V26.819Z" fill="black"/>
<path d="M36.056 26.819H33.944V28.8707H36.056V26.819Z" fill="black"/>
<path d="M38.1681 26.819H36.056V28.8707H38.1681V26.819Z" fill="black"/>
<path d="M42.3922 26.819H40.2802V28.8707H42.3922V26.819Z" fill="black"/>
<path d="M46.6164 26.819H44.5043V28.8707H46.6164V26.819Z" fill="black"/>
<path d="M48.7284 26.819H46.6164V28.8707H48.7284V26.819Z" fill="black"/>
<path d="M50.8405 26.819H48.7284V28.8707H50.8405V26.819Z" fill="black"/>
<path d="M61.4009 26.819H59.2888V28.8707H61.4009V26.819Z" fill="black"/>
<path d="M63.5129 26.819H61.4009V28.8707H63.5129V26.819Z" fill="black"/>
<path d="M65.625 26.819H63.5129V28.8707H65.625V26.819Z" fill="black"/>
<path d="M8.59914 28.8707H6.48707V30.9224H8.59914V28.8707Z" fill="black"/>
<path d="M10.7112 28.8707H8.59914V30.9224H10.7112V28.8707Z" fill="black"/>
<path d="M12.8233 28.8707H10.7112V30.9224H12.8233V28.8707Z" fill="black"/>
<path d="M17.0474 28.8707H14.9353V30.9224H17.0474V28.8707Z" fill="black"/>
<path d="M19.1595 28.8707H17.0474V30.9224H19.1595V28.8707Z" fill="black"/>
<path d="M21.2716 28.8707H19.1595V30.9224H21.2716V28.8707Z" fill="black"/>
<path d="M23.3836 28.8707H21.2716V30.9224H23.3836V28.8707Z" fill="black"/>
<path d="M27.6078 28.8707H25.4957V30.9224H27.6078V28.8707Z" fill="black"/>
<path d="M29.7198 28.8707H27.6078V30.9224H29.7198V28.8707Z" fill="black"/>
<path d="M31.8319 28.8707H29.7198V30.9224H31.8319V28.8707Z" fill="black"/>
<path d="M36.056 28.8707H33.944V30.9224H36.056V28.8707Z" fill="black"/>
<path d="M38.1681 28.8707H36.056V30.9224H38.1681V28.8707Z" fill="black"/>
<path d="M40.2802 28.8707H38.1681V30.9224H40.2802V28.8707Z" fill="black"/>
<path d="M42.3922 28.8707H40.2802V30.9224H42.3922V28.8707Z" fill="black"/>
<path d="M44.5043 28.8707H42.3922V30.9224H44.5043V28.8707Z" fill="black"/>
<path d="M46.6164 28.8707H44.5043V30.9224H46.6164V28.8707Z" fill="black"/>
<path d="M48.7284 28.8707H46.6164V30.9224H48.7284V28.8707Z" fill="black"/>
<path d="M55.0647 28.8707H52.9526V30.9224H55.0647V28.8707Z" fill="black"/>
<path d="M57.1767 28.8707H55.0647V30.9224H57.1767V28.8707Z" fill="black"/>
<path d="M61.4009 28.8707H59.2888V30.9224H61.4009V28.8707Z" fill="black"/>
<path d="M65.625 28.8707H63.5129V30.9224H65.625V28.8707Z" fill="black"/>
<path d="M6.48707 30.9224H4.375V32.9741H6.48707V30.9224Z" fill="black"/>
<path d="M8.59914 30.9224H6.48707V32.9741H8.59914V30.9224Z" fill="black"/>
<path d="M10.7112 30.9224H8.59914V32.9741H10.7112V30.9224Z" fill="black"/>
<path d="M12.8233 30.9224H10.7112V32.9741H12.8233V30.9224Z" fill="black"/>
<path d="M14.9353 30.9224H12.8233V32.9741H14.9353V30.9224Z" fill="black"/>
<path d="M17.0474 30.9224H14.9353V32.9741H17.0474V30.9224Z" fill="black"/>
<path d="M38.1681 30.9224H36.056V32.9741H38.1681V30.9224Z" fill="black"/>
<path d="M40.2802 30.9224H38.1681V32.9741H40.2802V30.9224Z" fill="black"/>
<path d="M44.5043 30.9224H42.3922V32.9741H44.5043V30.9224Z" fill="black"/>
<path d="M46.6164 30.9224H44.5043V32.9741H46.6164V30.9224Z" fill="black"/>
<path d="M50.8405 30.9224H48.7284V32.9741H50.8405V30.9224Z" fill="black"/>
<path d="M52.9526 30.9224H50.8405V32.9741H52.9526V30.9224Z" fill="black"/>
<path d="M55.0647 30.9224H52.9526V32.9741H55.0647V30.9224Z" fill="black"/>
<path d="M61.4009 30.9224H59.2888V32.9741H61.4009V30.9224Z" fill="black"/>
<path d="M63.5129 30.9224H61.4009V32.9741H63.5129V30.9224Z" fill="black"/>
<path d="M8.59914 32.9741H6.48707V35.0259H8.59914V32.9741Z" fill="black"/>
<path d="M12.8233 32.9741H10.7112V35.0259H12.8233V32.9741Z" fill="black"/>
<path d="M14.9353 32.9741H12.8233V35.0259H14.9353V32.9741Z" fill="black"/>
<path d="M17.0474 32.9741H14.9353V35.0259H17.0474V32.9741Z" fill="black"/>
<path d="M19.1595 32.9741H17.0474V35.0259H19.1595V32.9741Z" fill="black"/>
<path d="M21.2716 32.9741H19.1595V35.0259H21.2716V32.9741Z" fill="black"/>
<path d="M25.4957 32.9741H23.3836V35.0259H25.4957V32.9741Z" fill="black"/>
<path d="M29.7198 32.9741H27.6078V35.0259H29.7198V32.9741Z" fill="black"/>
<path d="M38.1681 32.9741H36.056V35.0259H38.1681V32.9741Z" fill="black"/>
<path d="M40.2802 32.9741H38.1681V35.0259H40.2802V32.9741Z" fill="black"/>
<path d="M48.7284 32.9741H46.6164V35.0259H48.7284V32.9741Z" fill="black"/>
<path d="M52.9526 32.9741H50.8405V35.0259H52.9526V32.9741Z" fill="black"/>
<path d="M57.1767 32.9741H55.0647V35.0259H57.1767V32.9741Z" fill="black"/>
<path d="M59.2888 32.9741H57.1767V35.0259H59.2888V32.9741Z" fill="black"/>
<path d="M65.625 32.9741H63.5129V35.0259H65.625V32.9741Z" fill="black"/>
<path d="M8.59914 35.0259H6.48707V37.0776H8.59914V35.0259Z" fill="black"/>
<path d="M12.8233 35.0259H10.7112V37.0776H12.8233V35.0259Z" fill="black"/>
<path d="M23.3836 35.0259H21.2716V37.0776H23.3836V35.0259Z" fill="black"/>
<path d="M25.4957 35.0259H23.3836V37.0776H25.4957V35.0259Z" fill="black"/>
<path d="M29.7198 35.0259H27.6078V37.0776H29.7198V35.0259Z" fill="black"/>
<path d="M31.8319 35.0259H29.7198V37.0776H31.8319V35.0259Z" fill="black"/>
<path d="M38.1681 35.0259H36.056V37.0776H38.1681V35.0259Z" fill="black"/>
<path d="M40.2802 35.0259H38.1681V37.0776H40.2802V35.0259Z" fill="black"/>
<path d="M55.0647 35.0259H52.9526V37.0776H55.0647V35.0259Z" fill="black"/>
<path d="M63.5129 35.0259H61.4009V37.0776H63.5129V35.0259Z" fill="black"/>
<path d="M65.625 35.0259H63.5129V37.0776H65.625V35.0259Z" fill="black"/>
<path d="M6.48707 37.0776H4.375V39.1293H6.48707V37.0776Z" fill="black"/>
<path d="M10.7112 37.0776H8.59914V39.1293H10.7112V37.0776Z" fill="black"/>
<path d="M14.9353 37.0776H12.8233V39.1293H14.9353V37.0776Z" fill="black"/>
<path d="M19.1595 37.0776H17.0474V39.1293H19.1595V37.0776Z" fill="black"/>
<path d="M23.3836 37.0776H21.2716V39.1293H23.3836V37.0776Z" fill="black"/>
<path d="M27.6078 37.0776H25.4957V39.1293H27.6078V37.0776Z" fill="black"/>
<path d="M36.056 37.0776H33.944V39.1293H36.056V37.0776Z" fill="black"/>
<path d="M38.1681 37.0776H36.056V39.1293H38.1681V37.0776Z" fill="black"/>
<path d="M42.3922 37.0776H40.2802V39.1293H42.3922V37.0776Z" fill="black"/>
<path d="M44.5043 37.0776H42.3922V39.1293H44.5043V37.0776Z" fill="black"/>
<path d="M48.7284 37.0776H46.6164V39.1293H48.7284V37.0776Z" fill="black"/>
<path d="M50.8405 37.0776H48.7284V39.1293H50.8405V37.0776Z" fill="black"/>
<path d="M52.9526 37.0776H50.8405V39.1293H52.9526V37.0776Z" fill="black"/>
<path d="M57.1767 37.0776H55.0647V39.1293H57.1767V37.0776Z" fill="black"/>
<path d="M65.625 37.0776H63.5129V39.1293H65.625V37.0776Z" fill="black"/>
<path d="M10.7112 39.1293H8.59914V41.181H10.7112V39.1293Z" fill="black"/>
<path d="M21.2716 39.1293H19.1595V41.181H21.2716V39.1293Z" fill="black"/>
<path d="M25.4957 39.1293H23.3836V41.181H25.4957V39.1293Z" fill="black"/>
<path d="M31.8319 39.1293H29.7198V41.181H31.8319V39.1293Z" fill="black"/>
<path d="M33.944 39.1293H31.8319V41.181H33.944V39.1293Z" fill="black"/>
<path d="M38.1681 39.1293H36.056V41.181H38.1681V39.1293Z" fill="black"/>
<path d="M40.2802 39.1293H38.1681V41.181H40.2802V39.1293Z" fill="black"/>
<path d="M46.6164 39.1293H44.5043V41.181H46.6164V39.1293Z" fill="black"/>
<path d="M57.1767 39.1293H55.0647V41.181H57.1767V39.1293Z" fill="black"/>
<path d="M59.2888 39.1293H57.1767V41.181H59.2888V39.1293Z" fill="black"/>
<path d="M61.4009 39.1293H59.2888V41.181H61.4009V39.1293Z" fill="black"/>
<path d="M63.5129 39.1293H61.4009V41.181H63.5129V39.1293Z" fill="black"/>
<path d="M65.625 39.1293H63.5129V41.181H65.625V39.1293Z" fill="black"/>
<path d="M6.48707 41.181H4.375V43.2328H6.48707V41.181Z" fill="black"/>
<path d="M8.59914 41.181H6.48707V43.2328H8.59914V41.181Z" fill="black"/>
<path d="M12.8233 41.181H10.7112V43.2328H12.8233V41.181Z" fill="black"/>
<path d="M17.0474 41.181H14.9353V43.2328H17.0474V41.181Z" fill="black"/>
<path d="M19.1595 41.181H17.0474V43.2328H19.1595V41.181Z" fill="black"/>
<path d="M21.2716 41.181H19.1595V43.2328H21.2716V41.181Z" fill="black"/>
<path d="M27.6078 41.181H25.4957V43.2328H27.6078V41.181Z" fill="black"/>
<path d="M29.7198 41.181H27.6078V43.2328H29.7198V41.181Z" fill="black"/>
<path d="M36.056 41.181H33.944V43.2328H36.056V41.181Z" fill="black"/>
<path d="M38.1681 41.181H36.056V43.2328H38.1681V41.181Z" fill="black"/>
<path d="M44.5043 41.181H42.3922V43.2328H44.5043V41.181Z" fill="black"/>
<path d="M46.6164 41.181H44.5043V43.2328H46.6164V41.181Z" fill="black"/>
<path d="M55.0647 41.181H52.9526V43.2328H55.0647V41.181Z" fill="black"/>
<path d="M61.4009 41.181H59.2888V43.2328H61.4009V41.181Z" fill="black"/>
<path d="M63.5129 41.181H61.4009V43.2328H63.5129V41.181Z" fill="black"/>
<path d="M6.48707 43.2328H4.375V45.2845H6.48707V43.2328Z" fill="black"/>
<path d="M10.7112 43.2328H8.59914V45.2845H10.7112V43.2328Z" fill="black"/>
<path d="M17.0474 43.2328H14.9353V45.2845H17.0474V43.2328Z" fill="black"/>
<path d="M27.6078 43.2328H25.4957V45.2845H27.6078V43.2328Z" fill="black"/>
<path d="M29.7198 43.2328H27.6078V45.2845H29.7198V43.2328Z" fill="black"/>
<path d="M33.944 43.2328H31.8319V45.2845H33.944V43.2328Z" fill="black"/>
<path d="M46.6164 43.2328H44.5043V45.2845H46.6164V43.2328Z" fill="black"/>
<path d="M61.4009 43.2328H59.2888V45.2845H61.4009V43.2328Z" fill="black"/>
<path d="M8.59914 45.2845H6.48707V47.3362H8.59914V45.2845Z" fill="black"/>
<path d="M10.7112 45.2845H8.59914V47.3362H10.7112V45.2845Z" fill="black"/>
<path d="M14.9353 45.2845H12.8233V47.3362H14.9353V45.2845Z" fill="black"/>
<path d="M19.1595 45.2845H17.0474V47.3362H19.1595V45.2845Z" fill="black"/>
<path d="M21.2716 45.2845H19.1595V47.3362H21.2716V45.2845Z" fill="black"/>
<path d="M25.4957 45.2845H23.3836V47.3362H25.4957V45.2845Z" fill="black"/>
<path d="M31.8319 45.2845H29.7198V47.3362H31.8319V45.2845Z" fill="black"/>
<path d="M33.944 45.2845H31.8319V47.3362H33.944V45.2845Z" fill="black"/>
<path d="M38.1681 45.2845H36.056V47.3362H38.1681V45.2845Z" fill="black"/>
<path d="M40.2802 45.2845H38.1681V47.3362H40.2802V45.2845Z" fill="black"/>
<path d="M42.3922 45.2845H40.2802V47.3362H42.3922V45.2845Z" fill="black"/>
<path d="M44.5043 45.2845H42.3922V47.3362H44.5043V45.2845Z" fill="black"/>
<path d="M48.7284 45.2845H46.6164V47.3362H48.7284V45.2845Z" fill="black"/>
<path d="M50.8405 45.2845H48.7284V47.3362H50.8405V45.2845Z" fill="black"/>
<path d="M52.9526 45.2845H50.8405V47.3362H52.9526V45.2845Z" fill="black"/>
<path d="M55.0647 45.2845H52.9526V47.3362H55.0647V45.2845Z" fill="black"/>
<path d="M57.1767 45.2845H55.0647V47.3362H57.1767V45.2845Z" fill="black"/>
<path d="M63.5129 45.2845H61.4009V47.3362H63.5129V45.2845Z" fill="black"/>
<path d="M65.625 45.2845H63.5129V47.3362H65.625V45.2845Z" fill="black"/>
<path d="M23.3836 47.3362H21.2716V49.3879H23.3836V47.3362Z" fill="black"/>
<path d="M25.4957 47.3362H23.3836V49.3879H25.4957V47.3362Z" fill="black"/>
<path d="M27.6078 47.3362H25.4957V49.3879H27.6078V47.3362Z" fill="black"/>
<path d="M29.7198 47.3362H27.6078V49.3879H29.7198V47.3362Z" fill="black"/>
<path d="M31.8319 47.3362H29.7198V49.3879H31.8319V47.3362Z" fill="black"/>
<path d="M33.944 47.3362H31.8319V49.3879H33.944V47.3362Z" fill="black"/>
<path d="M40.2802 47.3362H38.1681V49.3879H40.2802V47.3362Z" fill="black"/>
<path d="M42.3922 47.3362H40.2802V49.3879H42.3922V47.3362Z" fill="black"/>
<path d="M44.5043 47.3362H42.3922V49.3879H44.5043V47.3362Z" fill="black"/>
<path d="M46.6164 47.3362H44.5043V49.3879H46.6164V47.3362Z" fill="black"/>
<path d="M48.7284 47.3362H46.6164V49.3879H48.7284V47.3362Z" fill="black"/>
<path d="M57.1767 47.3362H55.0647V49.3879H57.1767V47.3362Z" fill="black"/>
<path d="M63.5129 47.3362H61.4009V49.3879H63.5129V47.3362Z" fill="black"/>
<path d="M65.625 47.3362H63.5129V49.3879H65.625V47.3362Z" fill="black"/>
<path d="M6.48707 49.3879H4.375V51.4397H6.48707V49.3879Z" fill="black"/>
<path d="M8.59914 49.3879H6.48707V51.4397H8.59914V49.3879Z" fill="black"/>
<path d="M10.7112 49.3879H8.59914V51.4397H10.7112V49.3879Z" fill="black"/>
<path d="M12.8233 49.3879H10.7112V51.4397H12.8233V49.3879Z" fill="black"/>
<path d="M14.9353 49.3879H12.8233V51.4397H14.9353V49.3879Z" fill="black"/>
<path d="M17.0474 49.3879H14.9353V51.4397H17.0474V49.3879Z" fill="black"/>
<path d="M19.1595 49.3879H17.0474V51.4397H19.1595V49.3879Z" fill="black"/>
<path d="M25.4957 49.3879H23.3836V51.4397H25.4957V49.3879Z" fill="black"/>
<path d="M27.6078 49.3879H25.4957V51.4397H27.6078V49.3879Z" fill="black"/>
<path d="M31.8319 49.3879H29.7198V51.4397H31.8319V49.3879Z" fill="black"/>
<path d="M42.3922 49.3879H40.2802V51.4397H42.3922V49.3879Z" fill="black"/>
<path d="M48.7284 49.3879H46.6164V51.4397H48.7284V49.3879Z" fill="black"/>
<path d="M52.9526 49.3879H50.8405V51.4397H52.9526V49.3879Z" fill="black"/>
<path d="M57.1767 49.3879H55.0647V51.4397H57.1767V49.3879Z" fill="black"/>
<path d="M59.2888 49.3879H57.1767V51.4397H59.2888V49.3879Z" fill="black"/>
<path d="M63.5129 49.3879H61.4009V51.4397H63.5129V49.3879Z" fill="black"/>
<path d="M65.625 49.3879H63.5129V51.4397H65.625V49.3879Z" fill="black"/>
<path d="M6.48707 51.4397H4.375V53.4914H6.48707V51.4397Z" fill="black"/>
<path d="M19.1595 51.4397H17.0474V53.4914H19.1595V51.4397Z" fill="black"/>
<path d="M23.3836 51.4397H21.2716V53.4914H23.3836V51.4397Z" fill="black"/>
<path d="M29.7198 51.4397H27.6078V53.4914H29.7198V51.4397Z" fill="black"/>
<path d="M33.944 51.4397H31.8319V53.4914H33.944V51.4397Z" fill="black"/>
<path d="M40.2802 51.4397H38.1681V53.4914H40.2802V51.4397Z" fill="black"/>
<path d="M42.3922 51.4397H40.2802V53.4914H42.3922V51.4397Z" fill="black"/>
<path d="M44.5043 51.4397H42.3922V53.4914H44.5043V51.4397Z" fill="black"/>
<path d="M48.7284 51.4397H46.6164V53.4914H48.7284V51.4397Z" fill="black"/>
<path d="M57.1767 51.4397H55.0647V53.4914H57.1767V51.4397Z" fill="black"/>
<path d="M65.625 51.4397H63.5129V53.4914H65.625V51.4397Z" fill="black"/>
<path d="M6.48707 53.4914H4.375V55.5431H6.48707V53.4914Z" fill="black"/>
<path d="M10.7112 53.4914H8.59914V55.5431H10.7112V53.4914Z" fill="black"/>
<path d="M12.8233 53.4914H10.7112V55.5431H12.8233V53.4914Z" fill="black"/>
<path d="M14.9353 53.4914H12.8233V55.5431H14.9353V53.4914Z" fill="black"/>
<path d="M19.1595 53.4914H17.0474V55.5431H19.1595V53.4914Z" fill="black"/>
<path d="M29.7198 53.4914H27.6078V55.5431H29.7198V53.4914Z" fill="black"/>
<path d="M48.7284 53.4914H46.6164V55.5431H48.7284V53.4914Z" fill="black"/>
<path d="M50.8405 53.4914H48.7284V55.5431H50.8405V53.4914Z" fill="black"/>
<path d="M52.9526 53.4914H50.8405V55.5431H52.9526V53.4914Z" fill="black"/>
<path d="M55.0647 53.4914H52.9526V55.5431H55.0647V53.4914Z" fill="black"/>
<path d="M57.1767 53.4914H55.0647V55.5431H57.1767V53.4914Z" fill="black"/>
<path d="M59.2888 53.4914H57.1767V55.5431H59.2888V53.4914Z" fill="black"/>
<path d="M61.4009 53.4914H59.2888V55.5431H61.4009V53.4914Z" fill="black"/>
<path d="M63.5129 53.4914H61.4009V55.5431H63.5129V53.4914Z" fill="black"/>
<path d="M65.625 53.4914H63.5129V55.5431H65.625V53.4914Z" fill="black"/>
<path d="M6.48707 55.5431H4.375V57.5948H6.48707V55.5431Z" fill="black"/>
<path d="M10.7112 55.5431H8.59914V57.5948H10.7112V55.5431Z" fill="black"/>
<path d="M12.8233 55.5431H10.7112V57.5948H12.8233V55.5431Z" fill="black"/>
<path d="M14.9353 55.5431H12.8233V57.5948H14.9353V55.5431Z" fill="black"/>
<path d="M19.1595 55.5431H17.0474V57.5948H19.1595V55.5431Z" fill="black"/>
<path d="M25.4957 55.5431H23.3836V57.5948H25.4957V55.5431Z" fill="black"/>
<path d="M27.6078 55.5431H25.4957V57.5948H27.6078V55.5431Z" fill="black"/>
<path d="M31.8319 55.5431H29.7198V57.5948H31.8319V55.5431Z" fill="black"/>
<path d="M36.056 55.5431H33.944V57.5948H36.056V55.5431Z" fill="black"/>
<path d="M38.1681 55.5431H36.056V57.5948H38.1681V55.5431Z" fill="black"/>
<path d="M42.3922 55.5431H40.2802V57.5948H42.3922V55.5431Z" fill="black"/>
<path d="M55.0647 55.5431H52.9526V57.5948H55.0647V55.5431Z" fill="black"/>
<path d="M59.2888 55.5431H57.1767V57.5948H59.2888V55.5431Z" fill="black"/>
<path d="M61.4009 55.5431H59.2888V57.5948H61.4009V55.5431Z" fill="black"/>
<path d="M6.48707 57.5948H4.375V59.6465H6.48707V57.5948Z" fill="black"/>
<path d="M10.7112 57.5948H8.59914V59.6465H10.7112V57.5948Z" fill="black"/>
<path d="M12.8233 57.5948H10.7112V59.6465H12.8233V57.5948Z" fill="black"/>
<path d="M14.9353 57.5948H12.8233V59.6465H14.9353V57.5948Z" fill="black"/>
<path d="M19.1595 57.5948H17.0474V59.6465H19.1595V57.5948Z" fill="black"/>
<path d="M27.6078 57.5948H25.4957V59.6465H27.6078V57.5948Z" fill="black"/>
<path d="M29.7198 57.5948H27.6078V59.6465H29.7198V57.5948Z" fill="black"/>
<path d="M36.056 57.5948H33.944V59.6465H36.056V57.5948Z" fill="black"/>
<path d="M48.7284 57.5948H46.6164V59.6465H48.7284V57.5948Z" fill="black"/>
<path d="M50.8405 57.5948H48.7284V59.6465H50.8405V57.5948Z" fill="black"/>
<path d="M55.0647 57.5948H52.9526V59.6465H55.0647V57.5948Z" fill="black"/>
<path d="M59.2888 57.5948H57.1767V59.6465H59.2888V57.5948Z" fill="black"/>
<path d="M61.4009 57.5948H59.2888V59.6465H61.4009V57.5948Z" fill="black"/>
<path d="M6.48707 59.6465H4.375V61.6983H6.48707V59.6465Z" fill="black"/>
<path d="M19.1595 59.6465H17.0474V61.6983H19.1595V59.6465Z" fill="black"/>
<path d="M27.6078 59.6465H25.4957V61.6983H27.6078V59.6465Z" fill="black"/>
<path d="M29.7198 59.6465H27.6078V61.6983H29.7198V59.6465Z" fill="black"/>
<path d="M31.8319 59.6465H29.7198V61.6983H31.8319V59.6465Z" fill="black"/>
<path d="M36.056 59.6465H33.944V61.6983H36.056V59.6465Z" fill="black"/>
<path d="M38.1681 59.6465H36.056V61.6983H38.1681V59.6465Z" fill="black"/>
<path d="M40.2802 59.6465H38.1681V61.6983H40.2802V59.6465Z" fill="black"/>
<path d="M44.5043 59.6465H42.3922V61.6983H44.5043V59.6465Z" fill="black"/>
<path d="M46.6164 59.6465H44.5043V61.6983H46.6164V59.6465Z" fill="black"/>
<path d="M50.8405 59.6465H48.7284V61.6983H50.8405V59.6465Z" fill="black"/>
<path d="M52.9526 59.6465H50.8405V61.6983H52.9526V59.6465Z" fill="black"/>
<path d="M55.0647 59.6465H52.9526V61.6983H55.0647V59.6465Z" fill="black"/>
<path d="M59.2888 59.6465H57.1767V61.6983H59.2888V59.6465Z" fill="black"/>
<path d="M63.5129 59.6465H61.4009V61.6983H63.5129V59.6465Z" fill="black"/>
<path d="M65.625 59.6465H63.5129V61.6983H65.625V59.6465Z" fill="black"/>
<path d="M6.48707 61.6983H4.375V63.75H6.48707V61.6983Z" fill="black"/>
<path d="M8.59914 61.6983H6.48707V63.75H8.59914V61.6983Z" fill="black"/>
<path d="M10.7112 61.6983H8.59914V63.75H10.7112V61.6983Z" fill="black"/>
<path d="M12.8233 61.6983H10.7112V63.75H12.8233V61.6983Z" fill="black"/>
<path d="M14.9353 61.6983H12.8233V63.75H14.9353V61.6983Z" fill="black"/>
<path d="M17.0474 61.6983H14.9353V63.75H17.0474V61.6983Z" fill="black"/>
<path d="M19.1595 61.6983H17.0474V63.75H19.1595V61.6983Z" fill="black"/>
<path d="M25.4957 61.6983H23.3836V63.75H25.4957V61.6983Z" fill="black"/>
<path d="M31.8319 61.6983H29.7198V63.75H31.8319V61.6983Z" fill="black"/>
<path d="M36.056 61.6983H33.944V63.75H36.056V61.6983Z" fill="black"/>
<path d="M42.3922 61.6983H40.2802V63.75H42.3922V61.6983Z" fill="black"/>
<path d="M44.5043 61.6983H42.3922V63.75H44.5043V61.6983Z" fill="black"/>
<path d="M46.6164 61.6983H44.5043V63.75H46.6164V61.6983Z" fill="black"/>
<path d="M50.8405 61.6983H48.7284V63.75H50.8405V61.6983Z" fill="black"/>
<path d="M55.0647 61.6983H52.9526V63.75H55.0647V61.6983Z" fill="black"/>
<path d="M57.1767 61.6983H55.0647V63.75H57.1767V61.6983Z" fill="black"/>
<path d="M61.4009 61.6983H59.2888V63.75H61.4009V61.6983Z" fill="black"/>
</g>
<defs>
<clipPath id="clip0_141_907">
<rect width="70" height="68" fill="white"/>
</clipPath>
</defs>
</svg>
